<mxfile host="app.diagrams.net" modified="2022-09-26T14:45:16.472Z" agent="5.0 (Linux; Android 10; Infinix X688B) AppleWebKit/537.36 (KHTML, like Gecko) Chrome/80.0.3987.99 Mobile Safari/537.36" etag="g9HHLdONCd9IH15HtPnQ" version="20.3.6" type="github">
  <diagram id="e2_ZQK5vJaF8S9oYPdFW" name="Page-1">
    <mxGraphModel dx="408" dy="1335" grid="0" gridSize="10" guides="1" tooltips="1" connect="1" arrows="1" fold="1" page="0" pageScale="1" pageWidth="850" pageHeight="1100" math="0" shadow="0">
      <root>
        <mxCell id="0" />
        <mxCell id="1" parent="0" />
        <mxCell id="7F4Io7gmobg3j1AqmcKT-1" value="" style="ellipse;whiteSpace=wrap;html=1;hachureGap=4;sketch=1;" vertex="1" parent="1">
          <mxGeometry x="338" y="-211" width="160" height="100" as="geometry" />
        </mxCell>
        <mxCell id="7F4Io7gmobg3j1AqmcKT-5" value="" style="edgeStyle=none;orthogonalLoop=1;jettySize=auto;html=1;rounded=0;endArrow=open;startSize=14;endSize=14;sourcePerimeterSpacing=8;targetPerimeterSpacing=8;curved=1;exitX=0.5;exitY=1;exitDx=0;exitDy=0;" edge="1" parent="1" source="7F4Io7gmobg3j1AqmcKT-1">
          <mxGeometry width="120" relative="1" as="geometry">
            <mxPoint x="299" y="39" as="sourcePoint" />
            <mxPoint x="418" y="-67" as="targetPoint" />
            <Array as="points" />
          </mxGeometry>
        </mxCell>
        <mxCell id="7F4Io7gmobg3j1AqmcKT-6" value="" style="rounded=0;whiteSpace=wrap;html=1;sketch=1;hachureGap=4;" vertex="1" parent="1">
          <mxGeometry x="345" y="-69" width="160" height="80" as="geometry" />
        </mxCell>
        <mxCell id="7F4Io7gmobg3j1AqmcKT-7" value="" style="edgeStyle=none;orthogonalLoop=1;jettySize=auto;html=1;rounded=0;endArrow=open;startSize=14;endSize=14;sourcePerimeterSpacing=8;targetPerimeterSpacing=8;curved=1;exitX=0.5;exitY=1;exitDx=0;exitDy=0;" edge="1" parent="1" source="7F4Io7gmobg3j1AqmcKT-6">
          <mxGeometry width="120" relative="1" as="geometry">
            <mxPoint x="402" y="29" as="sourcePoint" />
            <mxPoint x="418" y="71" as="targetPoint" />
            <Array as="points" />
          </mxGeometry>
        </mxCell>
        <mxCell id="7F4Io7gmobg3j1AqmcKT-9" value="" style="shape=parallelogram;perimeter=parallelogramPerimeter;whiteSpace=wrap;html=1;fixedSize=1;sketch=1;hachureGap=4;" vertex="1" parent="1">
          <mxGeometry x="338" y="73" width="150" height="92" as="geometry" />
        </mxCell>
        <mxCell id="7F4Io7gmobg3j1AqmcKT-10" value="" style="edgeStyle=none;orthogonalLoop=1;jettySize=auto;html=1;rounded=0;endArrow=open;startSize=14;endSize=14;sourcePerimeterSpacing=8;targetPerimeterSpacing=8;curved=1;exitX=0.5;exitY=1;exitDx=0;exitDy=0;" edge="1" parent="1" source="7F4Io7gmobg3j1AqmcKT-9">
          <mxGeometry width="120" relative="1" as="geometry">
            <mxPoint x="338" y="220" as="sourcePoint" />
            <mxPoint x="413" y="214" as="targetPoint" />
            <Array as="points" />
          </mxGeometry>
        </mxCell>
        <mxCell id="7F4Io7gmobg3j1AqmcKT-11" value="" style="rounded=0;whiteSpace=wrap;html=1;sketch=1;hachureGap=4;" vertex="1" parent="1">
          <mxGeometry x="328" y="217" width="160" height="80" as="geometry" />
        </mxCell>
        <mxCell id="7F4Io7gmobg3j1AqmcKT-15" value="" style="rounded=0;whiteSpace=wrap;html=1;sketch=1;hachureGap=4;" vertex="1" parent="1">
          <mxGeometry x="348" y="348" width="160" height="80" as="geometry" />
        </mxCell>
        <mxCell id="7F4Io7gmobg3j1AqmcKT-16" value="" style="edgeStyle=none;orthogonalLoop=1;jettySize=auto;html=1;rounded=0;endArrow=open;startSize=14;endSize=14;sourcePerimeterSpacing=8;targetPerimeterSpacing=8;curved=1;" edge="1" parent="1">
          <mxGeometry width="120" relative="1" as="geometry">
            <mxPoint x="423" y="300" as="sourcePoint" />
            <mxPoint x="423" y="346" as="targetPoint" />
            <Array as="points" />
          </mxGeometry>
        </mxCell>
        <mxCell id="7F4Io7gmobg3j1AqmcKT-18" value="" style="edgeStyle=none;orthogonalLoop=1;jettySize=auto;html=1;rounded=0;endArrow=open;startSize=14;endSize=14;sourcePerimeterSpacing=8;targetPerimeterSpacing=8;curved=1;exitX=0.5;exitY=1;exitDx=0;exitDy=0;" edge="1" parent="1" source="7F4Io7gmobg3j1AqmcKT-15">
          <mxGeometry width="120" relative="1" as="geometry">
            <mxPoint x="406" y="518" as="sourcePoint" />
            <mxPoint x="428" y="477" as="targetPoint" />
            <Array as="points" />
          </mxGeometry>
        </mxCell>
        <mxCell id="7F4Io7gmobg3j1AqmcKT-19" value="" style="rhombus;whiteSpace=wrap;html=1;sketch=1;hachureGap=4;" vertex="1" parent="1">
          <mxGeometry x="360" y="478" width="140" height="114" as="geometry" />
        </mxCell>
        <mxCell id="7F4Io7gmobg3j1AqmcKT-20" value="" style="endArrow=none;html=1;rounded=0;startSize=14;endSize=14;sourcePerimeterSpacing=8;targetPerimeterSpacing=8;curved=1;entryX=0.5;entryY=1;entryDx=0;entryDy=0;" edge="1" parent="1" target="7F4Io7gmobg3j1AqmcKT-19">
          <mxGeometry width="50" height="50" relative="1" as="geometry">
            <mxPoint x="430" y="616" as="sourcePoint" />
            <mxPoint x="437" y="399" as="targetPoint" />
            <Array as="points" />
          </mxGeometry>
        </mxCell>
        <mxCell id="7F4Io7gmobg3j1AqmcKT-21" value="" style="endArrow=none;html=1;rounded=0;startSize=14;endSize=14;targetPerimeterSpacing=8;curved=1;startArrow=none;" edge="1" parent="1" source="7F4Io7gmobg3j1AqmcKT-22">
          <mxGeometry width="50" height="50" relative="1" as="geometry">
            <mxPoint x="429" y="674" as="sourcePoint" />
            <mxPoint x="429" y="640" as="targetPoint" />
          </mxGeometry>
        </mxCell>
        <mxCell id="7F4Io7gmobg3j1AqmcKT-24" value="" style="edgeStyle=none;orthogonalLoop=1;jettySize=auto;html=1;rounded=0;endArrow=open;startSize=14;endSize=14;sourcePerimeterSpacing=8;targetPerimeterSpacing=8;curved=1;exitX=0.5;exitY=1;exitDx=0;exitDy=0;" edge="1" parent="1" source="7F4Io7gmobg3j1AqmcKT-22">
          <mxGeometry width="120" relative="1" as="geometry">
            <mxPoint x="425.5" y="760" as="sourcePoint" />
            <mxPoint x="430" y="800" as="targetPoint" />
            <Array as="points" />
          </mxGeometry>
        </mxCell>
        <mxCell id="7F4Io7gmobg3j1AqmcKT-25" value="" style="ellipse;whiteSpace=wrap;html=1;sketch=1;hachureGap=4;" vertex="1" parent="1">
          <mxGeometry x="348" y="797" width="160" height="100" as="geometry" />
        </mxCell>
        <mxCell id="7F4Io7gmobg3j1AqmcKT-22" value="" style="rounded=0;whiteSpace=wrap;html=1;sketch=1;hachureGap=4;rotation=0;" vertex="1" parent="1">
          <mxGeometry x="345" y="671" width="164.99" height="80" as="geometry" />
        </mxCell>
        <mxCell id="7F4Io7gmobg3j1AqmcKT-28" value="" style="endArrow=none;html=1;rounded=0;startSize=14;endSize=14;sourcePerimeterSpacing=8;curved=1;" edge="1" parent="1" target="7F4Io7gmobg3j1AqmcKT-22">
          <mxGeometry width="50" height="50" relative="1" as="geometry">
            <mxPoint x="429" y="674" as="sourcePoint" />
            <mxPoint x="429" y="640" as="targetPoint" />
          </mxGeometry>
        </mxCell>
        <mxCell id="7F4Io7gmobg3j1AqmcKT-29" value="" style="edgeStyle=none;orthogonalLoop=1;jettySize=auto;html=1;rounded=0;endArrow=open;startSize=14;endSize=14;sourcePerimeterSpacing=8;targetPerimeterSpacing=8;curved=1;" edge="1" parent="1">
          <mxGeometry width="120" relative="1" as="geometry">
            <mxPoint x="569" y="38" as="sourcePoint" />
            <mxPoint x="425" y="41" as="targetPoint" />
            <Array as="points">
              <mxPoint x="516" y="32" />
            </Array>
          </mxGeometry>
        </mxCell>
        <mxCell id="7F4Io7gmobg3j1AqmcKT-31" value="" style="endArrow=none;html=1;rounded=0;startSize=14;endSize=14;sourcePerimeterSpacing=8;targetPerimeterSpacing=8;curved=1;" edge="1" parent="1">
          <mxGeometry width="50" height="50" relative="1" as="geometry">
            <mxPoint x="568" y="526" as="sourcePoint" />
            <mxPoint x="564" y="37" as="targetPoint" />
            <Array as="points" />
          </mxGeometry>
        </mxCell>
        <mxCell id="7F4Io7gmobg3j1AqmcKT-32" value="Text" style="edgeLabel;html=1;align=center;verticalAlign=middle;resizable=0;points=[];" vertex="1" connectable="0" parent="7F4Io7gmobg3j1AqmcKT-31">
          <mxGeometry x="0.5173" y="-14" relative="1" as="geometry">
            <mxPoint as="offset" />
          </mxGeometry>
        </mxCell>
      </root>
    </mxGraphModel>
  </diagram>
</mxfile>
